<?xml version="1.0" encoding="UTF-8"?>
<svg width="20px" height="20px" viewBox="0 0 20 20" version="1.1" xmlns="http://www.w3.org/2000/svg" xmlns:xlink="http://www.w3.org/1999/xlink">
    <!-- Generator: Sketch 63.1 (92452) - https://sketch.com -->
    <title>ICA/title/icon/failcost</title>
    <desc>Created with Sketch.</desc>
    <g id="ICA/title/icon/failcost" stroke="none" stroke-width="1" fill="none" fill-rule="evenodd">
        <g id="百分比" fill="#E53932" fill-rule="nonzero">
            <path d="M1.87761756,18.9473884 L1.87761759,18.9473884 C1.32410452,18.9476139 0.875206164,18.499093 0.874972501,17.94558 C0.874972501,17.6795238 0.980542084,17.424342 1.16872714,17.2362686 L16.8808748,1.52412096 L16.8808748,1.52412095 C17.2723845,1.13261128 17.9071461,1.13261128 18.2986535,1.52412095 C18.6901632,1.91563062 18.6901632,2.55039217 18.2986535,2.94189964 L2.58837884,18.6540473 L2.58837885,18.6540473 C2.40011513,18.8427905 2.14419163,18.94841 1.87760879,18.9473884 L1.87761756,18.9473884 Z M19.4287419,15.1039651 L19.4287419,15.1041066 C19.4267462,12.5191477 17.3317961,10.4240551 14.7468173,10.4219177 L14.7468176,10.4219177 C12.1625197,10.4259874 10.0694103,12.5215628 10.0683746,15.1058474 L10.0683746,15.1058143 C10.0714646,17.6893189 12.1650163,19.782891 14.7485143,19.78602 L14.7485141,19.78602 C17.3327459,19.7829099 19.4266265,17.6881995 19.4287419,15.1039633 L19.4287419,15.1039651 Z M17.4224139,15.1039651 C17.4224139,16.5781541 16.2227536,17.7778143 14.7504376,17.7778143 L14.7504377,17.7778143 C13.2745696,17.775743 12.0786597,16.5798332 12.0765884,15.1039651 C12.0765884,13.6297761 13.2762487,12.4301158 14.7504377,12.4301158 C16.2246267,12.4301158 17.4242869,13.6297761 17.4242869,15.1039651 L17.4224139,15.1039651 Z M9.39899326,5.07420982 L9.39899326,5.07431123 C9.39490794,2.49228299 7.30283197,0.400121097 4.72079271,0.395912358 L4.72079286,0.395912358 C2.13728825,0.397982388 0.0428787621,2.49070746 0.0387360181,5.07420106 L0.0387360181,5.07406002 C0.0407320026,7.65901896 2.13568177,9.75411154 4.72066054,9.75624896 L4.72066078,9.75624896 C7.30416539,9.75210278 9.39687816,7.65769464 9.39899326,5.07419223 L9.39899326,5.07420982 Z M7.39454719,5.07420982 C7.39454719,6.55028065 6.19488681,7.74993209 4.72069779,7.74993209 L4.72069793,7.74993209 C3.24336227,7.74889507 2.04601132,6.55153666 2.04497566,5.07420982 C2.04497566,3.60002081 3.24463591,2.40036056 4.72069793,2.40036056 C6.19488694,2.40036056 7.39454719,3.60002081 7.39454719,5.07420982 L7.39454719,5.07420982 Z" id="形状"></path>
        </g>
    </g>
</svg>