<?xml version="1.0" encoding="UTF-8"?>
<svg width="20px" height="20px" viewBox="0 0 20 20" version="1.1" xmlns="http://www.w3.org/2000/svg" xmlns:xlink="http://www.w3.org/1999/xlink">
    <!-- Generator: Sketch 63.1 (92452) - https://sketch.com -->
    <title>ICA/title/icon/fail</title>
    <desc>Created with Sketch.</desc>
    <g id="ICA/title/icon/fail" stroke="none" stroke-width="1" fill="none" fill-rule="evenodd">
        <g id="失败" fill="#E53932" fill-rule="nonzero">
            <path d="M10.0000116,0 C4.42875515,0 0,4.42875515 0,10.0000116 C0,15.5712681 4.42875515,20.0000233 10.0000116,20.0000233 C15.5712681,20.0000233 20.0000233,15.5712681 20.0000233,10.0000116 C20.0000233,4.42875515 15.5712681,0 10.0000116,0 Z M11.2856381,7.71438398 C11.2856381,7.42875864 11.5712635,7.00000815 12.000014,7.00000815 L13.0000151,7.00000815 C13.2856381,7.00000815 13.714391,7.28563348 13.714391,7.71438398 L13.714391,9.00000815 C13.714391,9.28563581 13.4287656,9.7143863 13.0000151,9.7143863 L12.000014,9.7143863 C11.7143886,9.7143863 11.2856381,9.42876097 11.2856381,9.00000815 L11.2856381,7.71438398 Z M6.28563231,7.71438398 C6.28563231,7.42875864 6.57125765,7.00000815 7.00000815,7.00000815 L8.00000931,7.00000815 C8.28563231,7.00000815 8.71438514,7.28563348 8.71438514,7.71438398 L8.71438514,9.00000815 C8.71438514,9.28563581 8.42875981,9.7143863 8.00000931,9.7143863 L7.00000815,9.7143863 C6.71438281,9.7143863 6.28563231,9.42876097 6.28563231,9.00000815 L6.28563231,7.71438398 Z M13.5712658,15.0000175 C12.7143898,13.5712658 11.5712635,13.0000151 10.0000058,13.0000151 C8.42875981,13.0000151 7.28563348,13.5712658 6.42875748,15.0000175 L5.00000582,15.0000175 C5.71438165,13.1431403 7.85688414,11.7143886 10.0000058,11.7143886 C12.1431391,11.7143886 14.4287668,13.4287656 15.0000175,15.0000175 L13.5712658,15.0000175 Z" id="形状"></path>
        </g>
    </g>
</svg>