<?xml version="1.0" encoding="UTF-8"?>
<svg width="20px" height="20px" viewBox="0 0 20 20" version="1.1" xmlns="http://www.w3.org/2000/svg" xmlns:xlink="http://www.w3.org/1999/xlink">
    <!-- Generator: Sketch 63.1 (92452) - https://sketch.com -->
    <title>ICA/title/icon/statistics</title>
    <desc>Created with Sketch.</desc>
    <g id="ICA/title/icon/statistics" stroke="none" stroke-width="1" fill="none" fill-rule="evenodd">
        <g id="百分比" fill="#6DD400" fill-rule="nonzero">
            <path d="M11.8952541,1.77101573 C13.0082515,2.01833438 14.1213504,2.5130205 14.9870545,3.25512293 C15.8527567,3.99710426 16.5947615,4.86280644 17.0894398,5.97580969 L11.647871,7.45991688 L11.8952619,1.77101573 M10.7821688,0.410635243 L10.5348736,9.06759844 L18.8208403,6.71790821 C18.3261541,4.9865058 17.2131333,3.37872463 15.8527509,2.26573506 C14.3686671,1.15264197 12.6372588,0.410635243 10.782159,0.410635243 L10.7821688,0.410635243 Z M8.92707093,10.9226983 L17.3367682,8.820313 C17.4604641,9.43871997 17.5841591,10.1807013 17.5841591,10.9226983 C17.5841591,15.6222936 13.6266741,19.5797786 8.92707874,19.5797786 C4.22760062,19.5797786 0.270115545,15.6222936 0.270115545,10.9226983 C0.270115545,6.22322013 4.10390907,2.26573506 8.92707874,2.26573506 L8.92707874,10.9226983 L8.92707093,10.9226983 Z" id="形状"></path>
        </g>
    </g>
</svg>