<?xml version="1.0" encoding="UTF-8"?>
<svg width="20px" height="20px" viewBox="0 0 20 20" version="1.1" xmlns="http://www.w3.org/2000/svg" xmlns:xlink="http://www.w3.org/1999/xlink">
    <!-- Generator: Sketch 63.1 (92452) - https://sketch.com -->
    <title>ICA/title/icon/summary</title>
    <desc>Created with Sketch.</desc>
    <g id="ICA/title/icon/summary" stroke="none" stroke-width="1" fill="none" fill-rule="evenodd">
        <path d="M18.2487649,19.9999721 L16.322021,19.9999721 C15.5001727,20.0050517 14.8306265,19.31623 14.8255959,18.4617699 L14.8255959,7.69091529 C14.8306247,6.83718623 15.5008899,6.14836548 16.322021,6.15344418 L18.2494847,6.15344418 C19.0706132,6.14836461 19.740162,6.83718623 19.74519,7.6916464 L19.74519,18.4610388 C19.7408796,19.3147678 19.0706132,20.0043197 18.2494847,19.9992128 L18.2487649,19.9999721 Z M10.8370466,19.9999721 L8.90886582,19.9999721 C8.08701755,20.0050517 7.41747133,19.31623 7.41244071,18.4617699 L7.41244071,1.53823014 C7.41746951,0.684501068 8.08773469,-0.00505079103 8.90886582,2.79139841e-05 L10.8363295,2.79139841e-05 C11.6581778,-0.00505165753 12.327724,0.683769959 12.3320348,1.53823014 L12.3320348,18.4617699 C12.3277244,19.3154989 11.6581778,20.0050508 10.8370466,19.9999721 L10.8370466,19.9999721 Z M3.4238888,19.9999721 L1.4964251,19.9999721 C0.674576837,20.0050517 0.00503061418,19.31623 -5.34683409e-13,18.4617699 L-5.34683409e-13,15.3846962 C0.00502880135,14.530236 0.675293972,13.8414153 1.4957053,13.846494 L3.42388613,13.846494 C4.2457344,13.8414144 4.91528062,14.530236 4.91959143,15.3846962 L4.91959143,18.4617699 C4.91528105,19.3154989 4.2457344,20.0050508 3.42388613,19.9999721 L3.4238888,19.9999721 Z" id="形状" fill="#6DD400" fill-rule="nonzero"></path>
    </g>
</svg>